PathFileType	4	(X/Y/Z)	C:\Users\°ÂÌØÂü\Desktop\20210112\bx_y_5_1802-Unnamed.trc
DataRate	CameraRate	NumFrames	NumMarkers	Units	OrigDataRate	OrigDataStartFrame	OrigNumFrames
50.00	50.00	       4	0	mm	50.00	60	       478
Frame#	Time	
		

60	1.180	-519.70325	-58.26011	1378.80750	-766.19452	-9.49713	972.63397				-685.54449	-18.81552	808.63751	-761.93207	285.82095	833.71710	-685.77240	218.02184	819.49860	-723.97723	287.89737	707.20184	-670.91595	263.50494	609.40759	-632.68597	59.59568	571.99323	-608.77917	162.01077	567.81671	-615.56281	-4.04136	505.47202	-649.14758	263.08588	559.73987	-698.57953	267.30804	493.06549	-595.96149	221.16164	515.04474	-707.45386	75.70616	214.96182	-666.64111	-69.77439	160.72893	-702.88538	153.38286	212.46735	-625.12054	-81.32985	157.56406	-765.53351	224.01799	204.94279	-882.57434	296.15549	144.64362	-673.01501	53.37737	159.05064	-602.02704	16.12733	168.06764	-561.23010	-44.27983	163.48222	-673.45221	173.62268	155.94263	-594.23932	225.08398	173.83485	-666.88751	299.21124	160.31404	-629.89581	307.94510	161.46500	-562.42072	264.60623	165.59636	-528.08673	304.52304	146.42279	-325.80542	105.17031	1575.36462	-714.09698	-68.31611	680.90570	-529.35339	271.30582	1364.10352	-517.72723	-72.48470	142.19098	-793.34271	170.86061	186.23534	-764.00055	-5.56435	206.26337	-791.75098	57.91861	176.06775				-721.74329	-47.97437	482.07608	-875.99457	-78.94872	141.12155	-966.41174	97.03860	1000.15869	-766.96326	-79.29828	823.26141	-666.82697	-49.15776	604.88635	-663.20013	-46.20417	554.40814	
61	1.200	-516.60339	-57.54596	1366.06995							-687.08728	-20.10732	806.36310	-763.75958	286.58716	829.78174	-687.12598	219.28619	817.34314	-723.94775	289.27139	704.62268	-668.73022	264.73914	607.83820	-629.87231	58.86247	571.13916	-605.74841	162.99608	566.94141	-612.95648	-4.34847	504.50247	-645.97504	264.56299	559.41962	-695.99896	267.97220	491.95227	-593.26917	221.66599	513.95325	-707.24652	75.77498	214.78215	-666.96613	-69.85267	160.64690	-702.59900	153.47389	212.10704	-625.14581	-81.20454	157.54985	-765.53351	224.01799	204.94279	-882.60834	296.06894	144.52896	-672.89227	53.37672	158.73611	-602.31921	16.05432	167.72377	-561.32416	-44.35438	163.52092	-673.43390	173.67540	155.99680	-594.33264	225.25468	173.58168	-666.73840	299.14536	160.26543	-630.02686	307.84354	161.52666	-562.42072	264.60623	165.59636	-528.17798	304.28409	146.29510	-322.35840	105.78112	1562.35132				-525.51593	272.62125	1352.05383	-517.53894	-72.37920	142.83632	-793.12622	170.77902	186.35335	-763.64642	-5.58505	206.70181	-791.69623	58.08553	176.30299				-719.68585	-47.99260	481.11002	-875.97748	-78.88188	141.21204	-970.31958	97.52679	995.52515	-770.40326	-78.83863	819.27386	-664.26471	-50.03163	603.38898	-660.46954	-47.00290	553.59564	
62	1.220	-513.51251	-57.30556	1352.94739	-774.01862	-7.81654	960.04688				-688.74121	-20.31970	804.05182	-765.37665	287.75238	825.57513	-689.05939	220.86700	814.57410	-723.68298	290.49091	701.39252	-665.87561	265.82117	605.99164	-626.53888	58.76727	569.93463	-603.16180	163.74422	566.38507	-610.08807	-5.40185	503.83255	-642.99841	265.49832	557.59247	-693.40863	268.74490	491.45068	-590.19672	222.37180	513.10608	-707.24652	75.77498	214.78215	-667.26221	-69.71346	160.52718	-702.27563	153.40494	211.94815	-625.11993	-81.30669	157.89223	-765.28510	224.06937	205.22035	-882.49469	296.04074	144.63200	-673.03284	53.53859	158.69110	-602.22937	16.19193	167.82832	-560.93372	-44.06593	163.24539	-673.64612	173.61255	155.77486	-594.26666	225.21516	173.63698	-666.82867	299.14731	160.30817	-629.94086	307.82553	161.45651	-562.42072	264.60623	165.59636	-528.12360	304.36343	146.55630	-319.22311	106.47628	1549.09753				-521.42206	272.99695	1339.28198	-517.72736	-72.34167	142.40384	-793.12622	170.77902	186.35335	-763.08618	-5.49872	207.02167	-791.49786	58.22448	176.22324				-716.28491	-48.32036	480.63287	-875.97589	-78.81084	141.28232	-975.19794	98.28613	989.72229	-772.50824	-78.50446	815.27441	-661.52789	-50.72700	601.65002	-657.79871	-47.93769	552.18787	
63	1.240	-510.41132	-55.92460	1338.88147							-690.25732	-20.94410	801.72870	-767.13165	288.93060	820.60907	-690.11304	222.37369	812.50623	-723.07996	290.94379	697.17743	-663.51263	266.20999	602.97784				-598.57275	165.29144	565.64929	-607.09503	-6.74241	502.72937	-639.85516	266.50745	556.43970	-690.88257	268.94226	490.33524	-586.84052	223.69157	511.89926	-707.14240	75.37282	214.00883	-667.09503	-69.68781	160.44443	-702.24902	153.46680	211.63953	-625.20764	-81.30335	157.78596	-765.16516	223.88588	205.32808	-882.58313	296.18747	144.66440	-672.97681	53.42430	158.47075	-602.17078	15.88276	167.69565	-561.06195	-44.42022	163.39066	-673.64429	173.23947	155.60564	-594.10602	224.86510	173.42430	-666.72491	298.95575	160.60284	-630.09210	307.74683	161.54471	-562.33929	264.48959	165.59418	-528.22186	304.40140	146.63564	-316.16281	107.57114	1535.41455				-517.14124	273.74661	1326.21021	-517.72736	-72.34167	142.40384	-793.04828	170.76384	186.37505	-762.58386	-5.45027	207.17575	-791.45508	58.35188	176.38319				-713.95630	-48.72194	480.05789	-875.97589	-78.81084	141.28232	-978.66687	99.95622	983.07965	-774.43018	-77.87222	810.60760	-658.83020	-51.82201	600.24213	-654.57196	-48.66522	550.96680	
